<svg width="12" height="10" viewBox="0 0 12 10" fill="none" xmlns="http://www.w3.org/2000/svg">
<path d="M0.749837 4.99992H4.24984C4.40455 4.99992 4.55292 4.93846 4.66232 4.82906C4.77171 4.71967 4.83317 4.57129 4.83317 4.41658V0.916585C4.83317 0.761876 4.77171 0.613503 4.66232 0.504106C4.55292 0.39471 4.40455 0.333252 4.24984 0.333252H0.749837C0.595128 0.333252 0.446754 0.39471 0.337358 0.504106C0.227962 0.613503 0.166504 0.761876 0.166504 0.916585V4.41658C0.166504 4.57129 0.227962 4.71967 0.337358 4.82906C0.446754 4.93846 0.595128 4.99992 0.749837 4.99992ZM1.33317 1.49992H3.6665V3.83325H1.33317V1.49992ZM6.58317 2.66658H11.2498C11.4045 2.66658 11.5529 2.60513 11.6623 2.49573C11.7717 2.38633 11.8332 2.23796 11.8332 2.08325C11.8332 1.92854 11.7717 1.78017 11.6623 1.67077C11.5529 1.56138 11.4045 1.49992 11.2498 1.49992H6.58317C6.42846 1.49992 6.28009 1.56138 6.17069 1.67077C6.0613 1.78017 5.99984 1.92854 5.99984 2.08325C5.99984 2.23796 6.0613 2.38633 6.17069 2.49573C6.28009 2.60513 6.42846 2.66658 6.58317 2.66658ZM6.58317 8.49992H0.749837C0.595128 8.49992 0.446754 8.56138 0.337358 8.67077C0.227962 8.78017 0.166504 8.92854 0.166504 9.08325C0.166504 9.23796 0.227962 9.38633 0.337358 9.49573C0.446754 9.60513 0.595128 9.66658 0.749837 9.66658H6.58317C6.73788 9.66658 6.88625 9.60513 6.99565 9.49573C7.10505 9.38633 7.1665 9.23796 7.1665 9.08325C7.1665 8.92854 7.10505 8.78017 6.99565 8.67077C6.88625 8.56138 6.73788 8.49992 6.58317 8.49992ZM11.2498 6.16658H0.749837C0.595128 6.16658 0.446754 6.22804 0.337358 6.33744C0.227962 6.44684 0.166504 6.59521 0.166504 6.74992C0.166504 6.90463 0.227962 7.053 0.337358 7.1624C0.446754 7.27179 0.595128 7.33325 0.749837 7.33325H11.2498C11.4045 7.33325 11.5529 7.27179 11.6623 7.1624C11.7717 7.053 11.8332 6.90463 11.8332 6.74992C11.8332 6.59521 11.7717 6.44684 11.6623 6.33744C11.5529 6.22804 11.4045 6.16658 11.2498 6.16658ZM11.2498 3.83325H6.58317C6.42846 3.83325 6.28009 3.89471 6.17069 4.00411C6.0613 4.1135 5.99984 4.26188 5.99984 4.41658C5.99984 4.57129 6.0613 4.71967 6.17069 4.82906C6.28009 4.93846 6.42846 4.99992 6.58317 4.99992H11.2498C11.4045 4.99992 11.5529 4.93846 11.6623 4.82906C11.7717 4.71967 11.8332 4.57129 11.8332 4.41658C11.8332 4.26188 11.7717 4.1135 11.6623 4.00411C11.5529 3.89471 11.4045 3.83325 11.2498 3.83325Z" fill="black"/>
</svg>
