<svg width="14" height="12" viewBox="0 0 14 12" fill="none" xmlns="http://www.w3.org/2000/svg">
<path d="M10.5002 10.0833H3.50016C3.03603 10.0833 2.59091 9.89896 2.26273 9.57077C1.93454 9.24258 1.75016 8.79746 1.75016 8.33333V3.66667C1.75016 3.51196 1.6887 3.36358 1.57931 3.25419C1.46991 3.14479 1.32154 3.08333 1.16683 3.08333C1.01212 3.08333 0.863747 3.14479 0.75435 3.25419C0.644954 3.36358 0.583496 3.51196 0.583496 3.66667V8.33333C0.583496 9.10688 0.890787 9.84875 1.43777 10.3957C1.70861 10.6666 2.03014 10.8814 2.384 11.028C2.73787 11.1746 3.11714 11.25 3.50016 11.25H10.5002C10.6549 11.25 10.8032 11.1885 10.9126 11.0791C11.022 10.9697 11.0835 10.8214 11.0835 10.6667C11.0835 10.512 11.022 10.3636 10.9126 10.2542C10.8032 10.1448 10.6549 10.0833 10.5002 10.0833ZM8.16683 5.41667H5.8335C5.67879 5.41667 5.53041 5.47812 5.42102 5.58752C5.31162 5.69692 5.25016 5.84529 5.25016 6C5.25016 6.15471 5.31162 6.30308 5.42102 6.41248C5.53041 6.52187 5.67879 6.58333 5.8335 6.58333H8.16683C8.32154 6.58333 8.46991 6.52187 8.57931 6.41248C8.6887 6.30308 8.75016 6.15471 8.75016 6C8.75016 5.84529 8.6887 5.69692 8.57931 5.58752C8.46991 5.47812 8.32154 5.41667 8.16683 5.41667ZM13.4168 4.79833C13.4108 4.74475 13.399 4.69195 13.3818 4.64083V4.58833C13.3538 4.52835 13.3164 4.47322 13.271 4.425L9.771 0.925C9.72277 0.879626 9.66764 0.842214 9.60766 0.814167H9.55516C9.4959 0.780182 9.43046 0.758367 9.36266 0.75H4.66683C4.2027 0.75 3.75758 0.934375 3.42939 1.26256C3.1012 1.59075 2.91683 2.03587 2.91683 2.5V7.16667C2.91683 7.6308 3.1012 8.07591 3.42939 8.4041C3.75758 8.73229 4.2027 8.91667 4.66683 8.91667H11.6668C12.131 8.91667 12.5761 8.73229 12.9043 8.4041C13.2325 8.07591 13.4168 7.6308 13.4168 7.16667V4.83333C13.4168 4.83333 13.4168 4.83333 13.4168 4.79833ZM9.91683 2.73917L11.4277 4.25H10.5002C10.3455 4.25 10.1971 4.18854 10.0877 4.07915C9.97829 3.96975 9.91683 3.82138 9.91683 3.66667V2.73917ZM12.2502 7.16667C12.2502 7.32138 12.1887 7.46975 12.0793 7.57915C11.9699 7.68854 11.8215 7.75 11.6668 7.75H4.66683C4.51212 7.75 4.36375 7.68854 4.25435 7.57915C4.14495 7.46975 4.0835 7.32138 4.0835 7.16667V2.5C4.0835 2.34529 4.14495 2.19692 4.25435 2.08752C4.36375 1.97812 4.51212 1.91667 4.66683 1.91667H8.75016V3.66667C8.75016 4.1308 8.93454 4.57591 9.26273 4.9041C9.59091 5.23229 10.036 5.41667 10.5002 5.41667H12.2502V7.16667ZM5.8335 4.25H7.00016C7.15487 4.25 7.30325 4.18854 7.41264 4.07915C7.52204 3.96975 7.5835 3.82138 7.5835 3.66667C7.5835 3.51196 7.52204 3.36358 7.41264 3.25419C7.30325 3.14479 7.15487 3.08333 7.00016 3.08333H5.8335C5.67879 3.08333 5.53041 3.14479 5.42102 3.25419C5.31162 3.36358 5.25016 3.51196 5.25016 3.66667C5.25016 3.82138 5.31162 3.96975 5.42102 4.07915C5.53041 4.18854 5.67879 4.25 5.8335 4.25Z" fill="black"/>
</svg>
