<svg width="12" height="12" viewBox="0 0 12 12" fill="none" xmlns="http://www.w3.org/2000/svg">
<path d="M10.8649 4.43658L2.69823 0.353245C2.37594 0.192834 2.01201 0.135727 1.65607 0.189709C1.30013 0.243691 0.969501 0.406136 0.70926 0.654896C0.449019 0.903656 0.271831 1.22662 0.201854 1.57977C0.131878 1.93291 0.172518 2.29904 0.318233 2.62825L1.71823 5.76075C1.75 5.83648 1.76636 5.91778 1.76636 5.99991C1.76636 6.08204 1.75 6.16334 1.71823 6.23908L0.318233 9.37158C0.199642 9.63799 0.149508 9.92982 0.172387 10.2205C0.195266 10.5113 0.290433 10.7917 0.44924 11.0362C0.608046 11.2808 0.825457 11.4818 1.08171 11.621C1.33797 11.7602 1.62495 11.8332 1.91657 11.8332C2.1897 11.8305 2.45877 11.7667 2.70407 11.6466L10.8707 7.56325C11.1604 7.41752 11.4039 7.19417 11.5741 6.91812C11.7442 6.64208 11.8343 6.32418 11.8343 5.99991C11.8343 5.67564 11.7442 5.35775 11.5741 5.0817C11.4039 4.80565 11.1604 4.5823 10.8707 4.43658H10.8649ZM10.3457 6.51908L2.17907 10.6024C2.07183 10.6539 1.95141 10.6714 1.83396 10.6525C1.71651 10.6336 1.60764 10.5793 1.52195 10.4967C1.43626 10.4142 1.37785 10.3075 1.35454 10.1908C1.33124 10.0742 1.34416 9.95318 1.39157 9.84408L2.78573 6.71158C2.80378 6.66975 2.81936 6.6269 2.8324 6.58325H6.85157C7.00628 6.58325 7.15465 6.52179 7.26405 6.41239C7.37344 6.30299 7.4349 6.15462 7.4349 5.99991C7.4349 5.8452 7.37344 5.69683 7.26405 5.58743C7.15465 5.47804 7.00628 5.41658 6.85157 5.41658H2.8324C2.81936 5.37293 2.80378 5.33008 2.78573 5.28825L1.39157 2.15575C1.34416 2.04664 1.33124 1.92565 1.35454 1.80899C1.37785 1.69234 1.43626 1.5856 1.52195 1.50308C1.60764 1.42057 1.71651 1.36622 1.83396 1.34733C1.95141 1.32845 2.07183 1.34592 2.17907 1.39741L10.3457 5.48075C10.4413 5.5297 10.5215 5.60407 10.5775 5.69567C10.6335 5.78727 10.6631 5.89255 10.6631 5.99991C10.6631 6.10727 10.6335 6.21255 10.5775 6.30415C10.5215 6.39575 10.4413 6.47013 10.3457 6.51908Z" fill="black"/>
</svg>
