<svg width="12" height="12" viewBox="0 0 12 12" fill="none" xmlns="http://www.w3.org/2000/svg">
<path d="M11.4365 4.57092L10.334 4.20342L10.8532 3.16508C10.9058 3.0564 10.9234 2.93406 10.9036 2.81495C10.8837 2.69584 10.8274 2.58582 10.7423 2.50008L9.49984 1.25758C9.41364 1.1713 9.30257 1.1142 9.18224 1.09432C9.06191 1.07444 8.93837 1.09278 8.829 1.14675L7.79067 1.66592L7.42317 0.563417C7.38436 0.448495 7.31069 0.348532 7.21241 0.277436C7.11413 0.206341 6.99613 0.167651 6.87484 0.16675H5.12484C5.00255 0.166434 4.88325 0.204561 4.7838 0.275741C4.68436 0.346921 4.60981 0.447554 4.57067 0.563417L4.20317 1.66592L3.16484 1.14675C3.05616 1.09412 2.93382 1.07652 2.81471 1.09637C2.69559 1.11622 2.58558 1.17255 2.49984 1.25758L1.25734 2.50008C1.17106 2.58628 1.11396 2.69735 1.09408 2.81768C1.0742 2.93801 1.09253 3.06155 1.14651 3.17092L1.66567 4.20925L0.563173 4.57675C0.448251 4.61556 0.348287 4.68923 0.277192 4.78751C0.206097 4.88579 0.167407 5.00379 0.166506 5.12508V6.87508C0.16619 6.99737 0.204317 7.11667 0.275497 7.21612C0.346677 7.31556 0.44731 7.39012 0.563173 7.42925L1.66567 7.79675L1.14651 8.83508C1.09388 8.94377 1.07627 9.0661 1.09613 9.18521C1.11598 9.30433 1.17231 9.41434 1.25734 9.50008L2.49984 10.7426C2.58604 10.8289 2.69711 10.886 2.81744 10.9058C2.93777 10.9257 3.0613 10.9074 3.17067 10.8534L4.20901 10.3342L4.57651 11.4367C4.61564 11.5526 4.6902 11.6532 4.78964 11.7244C4.88908 11.7956 5.00838 11.8337 5.13067 11.8334H6.88067C7.00296 11.8337 7.12226 11.7956 7.2217 11.7244C7.32115 11.6532 7.3957 11.5526 7.43484 11.4367L7.80234 10.3342L8.84067 10.8534C8.94866 10.9047 9.0698 10.9216 9.1877 10.9018C9.3056 10.8819 9.41457 10.8264 9.49984 10.7426L10.7423 9.50008C10.8286 9.41389 10.8857 9.30281 10.9056 9.18248C10.9255 9.06215 10.9071 8.93862 10.8532 8.82925L10.334 7.79092L11.4365 7.42342C11.5514 7.3846 11.6514 7.31093 11.7225 7.21265C11.7936 7.11437 11.8323 6.99638 11.8332 6.87508V5.12508C11.8335 5.00279 11.7954 4.88349 11.7242 4.78405C11.653 4.68461 11.5524 4.61005 11.4365 4.57092ZM10.6665 6.45508L9.9665 6.68842C9.80554 6.74063 9.65786 6.82723 9.5337 6.94222C9.40955 7.05721 9.3119 7.19784 9.24752 7.35434C9.18315 7.51084 9.15359 7.67947 9.16089 7.84853C9.1682 8.0176 9.2122 8.18305 9.28984 8.33342L9.62234 8.99841L8.98067 9.64008L8.33317 9.29008C8.18358 9.21555 8.01972 9.17404 7.85269 9.16834C7.68565 9.16264 7.51935 9.1929 7.36502 9.25706C7.2107 9.32123 7.07196 9.4178 6.95821 9.54024C6.84445 9.66268 6.75833 9.80813 6.70567 9.96675L6.47234 10.6667H5.54484L5.3115 9.96675C5.25929 9.80578 5.17269 9.6581 5.0577 9.53395C4.94271 9.4098 4.80208 9.31214 4.64558 9.24777C4.48908 9.18339 4.32045 9.15383 4.15139 9.16114C3.98232 9.16845 3.81687 9.21244 3.66651 9.29008L3.00151 9.62258L2.35984 8.98092L2.70984 8.33342C2.78748 8.18305 2.83148 8.0176 2.83878 7.84853C2.84609 7.67947 2.81653 7.51084 2.75215 7.35434C2.68778 7.19784 2.59013 7.05721 2.46597 6.94222C2.34182 6.82723 2.19414 6.74063 2.03317 6.68842L1.33317 6.45508V5.54508L2.03317 5.31175C2.19414 5.25954 2.34182 5.17293 2.46597 5.05794C2.59013 4.94295 2.68778 4.80233 2.75215 4.64583C2.81653 4.48933 2.84609 4.3207 2.83878 4.15163C2.83148 3.98256 2.78748 3.81711 2.70984 3.66675L2.37734 3.01925L3.01901 2.37758L3.66651 2.71008C3.81687 2.78772 3.98232 2.83172 4.15139 2.83903C4.32045 2.84633 4.48908 2.81677 4.64558 2.7524C4.80208 2.68802 4.94271 2.59037 5.0577 2.46622C5.17269 2.34207 5.25929 2.19438 5.3115 2.03342L5.54484 1.33342H6.45484L6.68817 2.03342C6.74038 2.19438 6.82699 2.34207 6.94198 2.46622C7.05697 2.59037 7.19759 2.68802 7.35409 2.7524C7.51059 2.81677 7.67922 2.84633 7.84829 2.83903C8.01736 2.83172 8.18281 2.78772 8.33317 2.71008L8.99817 2.37758L9.63984 3.01925L9.28984 3.66675C9.21531 3.81634 9.17379 3.9802 9.16809 4.14723C9.1624 4.31427 9.19266 4.48057 9.25682 4.6349C9.32098 4.78922 9.41755 4.92796 9.53999 5.04171C9.66243 5.15547 9.80789 5.24159 9.9665 5.29425L10.6665 5.52758V6.45508ZM5.99984 3.66675C5.53835 3.66675 5.08722 3.8036 4.70351 4.05999C4.31979 4.31638 4.02072 4.68079 3.84412 5.10715C3.66752 5.53351 3.62131 6.00267 3.71134 6.45529C3.80137 6.90792 4.0236 7.32368 4.34992 7.65C4.67625 7.97632 5.09201 8.19855 5.54463 8.28858C5.99725 8.37861 6.46641 8.33241 6.89277 8.1558C7.31913 7.9792 7.68354 7.68013 7.93993 7.29641C8.19632 6.9127 8.33317 6.46157 8.33317 6.00008C8.33317 5.38124 8.08734 4.78775 7.64975 4.35017C7.21217 3.91258 6.61868 3.66675 5.99984 3.66675ZM5.99984 7.16675C5.76909 7.16675 5.54353 7.09832 5.35167 6.97013C5.15982 6.84194 5.01028 6.65973 4.92198 6.44655C4.83368 6.23337 4.81057 5.99879 4.85559 5.77248C4.9006 5.54617 5.01172 5.33829 5.17488 5.17512C5.33804 5.01196 5.54592 4.90085 5.77223 4.85583C5.99854 4.81082 6.23312 4.83392 6.4463 4.92222C6.65948 5.01053 6.84169 5.16006 6.96989 5.35192C7.09808 5.54377 7.1665 5.76934 7.1665 6.00008C7.1665 6.3095 7.04359 6.60625 6.8248 6.82504C6.606 7.04383 6.30926 7.16675 5.99984 7.16675Z" fill="black"/>
</svg>
