<svg width="12" height="12" viewBox="0 0 12 12" fill="none" xmlns="http://www.w3.org/2000/svg">
<path d="M11.2498 10.6667H9.49984V4.25008C9.49984 4.09537 9.43838 3.947 9.32898 3.8376C9.21959 3.72821 9.07121 3.66675 8.9165 3.66675H7.1665V0.750081C7.1665 0.595372 7.10505 0.446999 6.99565 0.337602C6.88625 0.228206 6.73788 0.166748 6.58317 0.166748H3.08317C2.92846 0.166748 2.78009 0.228206 2.67069 0.337602C2.5613 0.446999 2.49984 0.595372 2.49984 0.750081V10.6667H0.749837C0.595128 10.6667 0.446754 10.7282 0.337358 10.8376C0.227962 10.947 0.166504 11.0954 0.166504 11.2501C0.166504 11.4048 0.227962 11.5532 0.337358 11.6626C0.446754 11.772 0.595128 11.8334 0.749837 11.8334H11.2498C11.4045 11.8334 11.5529 11.772 11.6623 11.6626C11.7717 11.5532 11.8332 11.4048 11.8332 11.2501C11.8332 11.0954 11.7717 10.947 11.6623 10.8376C11.5529 10.7282 11.4045 10.6667 11.2498 10.6667ZM5.99984 10.6667H3.6665V1.33341H5.99984V10.6667ZM8.33317 10.6667H7.1665V4.83342H8.33317V10.6667Z" fill="black"/>
</svg>
